# xmcd CD database file
#
# Track frame offsets:
#	150
#	15620
#	34946
#	55217
#	71328
#	88008
#	102032
#	123830
#	147190
#	168514
#
# Disc length: 2844 seconds
#
# Revision: 0
# Processed by: cddbd v1.5.2PL0 Copyright (c) Steve Scherf et al.
# Submitted via: Feurio! 1.68 - http://www.feurio.com
#
DISCID=7d0b1a0a
DTITLE=CORRINA STEEL - Blues Is A Good Woman Gone Bad
DYEAR=1900
DGENRE=
TTITLE0=Bartenders Fool
TTITLE1=Darker Side To Me
TTITLE2=Blues Is A Good Woman Gone Bad
TTITLE3=Highway Girl
TTITLE4=All Or Nothing
TTITLE5=Load Help The Poor Needy
TTITLE6=Beautiful World
TTITLE7=I Can't Stop Loving You
TTITLE8=Evening Star
TTITLE9=Hard Times For The Working Man
EXTD=
EXTT0=
EXTT1=
EXTT2=
EXTT3=
EXTT4=
EXTT5=
EXTT6=
EXTT7=
EXTT8=
EXTT9=
PLAYORDER=
